<svg xmlns="http://www.w3.org/2000/svg" width="512" height="512" viewBox="0 0 512 512">
  <g transform="translate(20.47999999999999, 183.3290322580645) scale(0.6606451612903226)">
    
<g filter="url(#filter0_f_217_808)">
<rect x="322" y="37" width="354" height="146" rx="26" fill="#FBFBFB" fill-opacity="0.49"/>
</g>
<path d="M30.4474 151.404L0 92.8022H24.8298L47.3001 139.775H41.1208L63.7035 92.8022H85.9492L55.5018 151.404H30.4474Z" fill="#FBFBFB"/>
<path d="M91.9319 151.404V92.8022H114.29V151.404H91.9319ZM91.9319 86.4176V70H114.402V86.4176H91.9319Z" fill="#FBFBFB"/>
<path d="M173.916 153C169.198 153 165.003 152.468 161.333 151.404C157.738 150.34 154.704 148.896 152.232 147.071C149.761 145.247 147.851 143.271 146.502 141.143L148.412 136.81V151.404H126.054V70H148.412V107.282L146.502 103.063C147.851 100.935 149.761 98.9588 152.232 97.1346C154.704 95.3104 157.738 93.8663 161.333 92.8022C165.003 91.7381 169.198 91.206 173.916 91.206C179.384 91.206 184.477 92.3462 189.196 94.6264C193.915 96.8306 197.735 100.213 200.656 104.773C203.577 109.258 205.038 114.996 205.038 121.989C205.038 126.169 204.476 129.932 203.353 133.276C202.229 136.544 200.694 139.433 198.746 141.941C196.799 144.373 194.514 146.425 191.893 148.098C189.271 149.77 186.425 150.986 183.354 151.746C180.283 152.582 177.137 153 173.916 153ZM165.265 137.266C167.437 137.266 169.422 137 171.22 136.468C173.092 135.936 174.703 135.214 176.051 134.302C177.399 133.314 178.523 132.212 179.422 130.996C180.395 129.704 181.107 128.298 181.556 126.777C182.006 125.257 182.23 123.699 182.23 122.103C182.23 119.367 181.556 116.859 180.208 114.578C178.935 112.298 177.025 110.474 174.478 109.106C172.006 107.662 168.935 106.94 165.265 106.94C163.018 106.94 160.958 107.206 159.086 107.738C157.288 108.27 155.678 109.03 154.255 110.018C152.907 110.93 151.783 112.032 150.884 113.324C149.985 114.54 149.311 115.908 148.862 117.429C148.412 118.873 148.188 120.431 148.188 122.103C148.188 124.763 148.824 127.272 150.098 129.628C151.371 131.908 153.281 133.77 155.828 135.214C158.374 136.582 161.52 137.266 165.265 137.266Z" fill="#FBFBFB"/>
<path d="M250.025 153C241.786 153 234.745 151.708 228.903 149.124C223.061 146.463 218.604 142.815 215.533 138.179C212.462 133.466 210.927 128.108 210.927 122.103C210.927 118.455 211.488 115.072 212.612 111.956C213.735 108.764 215.346 105.913 217.443 103.405C219.615 100.821 222.274 98.6548 225.42 96.9066C228.566 95.0824 232.199 93.6763 236.318 92.6882C240.438 91.7001 245.007 91.206 250.025 91.206C256.092 91.206 261.485 91.9281 266.204 93.3723C270.997 94.7404 275.005 96.9066 278.225 99.8709C281.446 102.759 283.88 106.446 285.528 110.93C287.176 115.338 288 120.621 288 126.777H225.308V115.832H265.53C265.08 114.084 264.406 112.602 263.507 111.386C262.683 110.17 261.56 109.144 260.137 108.308C258.789 107.472 257.253 106.864 255.53 106.484C253.808 106.027 251.898 105.799 249.8 105.799C247.553 105.799 245.494 106.065 243.621 106.598C241.823 107.13 240.213 107.89 238.79 108.878C237.442 109.79 236.318 110.93 235.419 112.298C234.521 113.59 233.809 115.072 233.285 116.745C232.835 118.417 232.611 120.203 232.611 122.103C232.611 125.295 233.247 128.108 234.521 130.54C235.794 132.972 237.741 134.91 240.363 136.354C243.059 137.723 246.355 138.407 250.25 138.407C253.471 138.407 256.242 138.027 258.564 137.266C260.961 136.506 262.833 135.404 264.181 133.96H287.214C286.39 137.38 284.592 140.535 281.821 143.423C279.049 146.311 275.08 148.63 269.911 150.378C264.818 152.126 258.189 153 250.025 153Z" fill="#FBFBFB"/>
<rect x="322" y="37" width="354" height="146" rx="26" fill="#FBFBFB"/>
<path d="M374.961 149.325V69.1021H397.581V107.528L395.194 104.045C397.013 101.274 399.173 98.8392 401.673 96.7419C404.174 94.5697 407.205 92.9218 410.767 91.7982C414.329 90.5997 418.421 90.0005 423.043 90.0005C428.727 90.0005 433.501 91.124 437.366 93.3712C441.23 95.5434 444.148 98.652 446.118 102.697C448.164 106.742 449.187 111.685 449.187 117.528V149.325H426.567V122.135C426.567 117.266 425.506 113.446 423.384 110.674C421.338 107.903 417.89 106.517 413.04 106.517C409.858 106.517 407.092 107.191 404.742 108.539C402.469 109.813 400.688 111.648 399.4 114.045C398.187 116.367 397.581 119.138 397.581 122.359V149.325H374.961Z" fill="black"/>
<path d="M484.346 150.898C480.026 150.898 476.2 150.261 472.865 148.988C469.607 147.715 466.879 145.917 464.681 143.595C462.483 141.198 460.816 138.314 459.68 134.943C458.619 131.498 458.088 127.603 458.088 123.258V91.5735H480.595V118.764C480.595 121.985 481.087 124.794 482.072 127.191C483.058 129.513 484.573 131.31 486.619 132.584C488.741 133.782 491.355 134.382 494.462 134.382C497.873 134.382 500.752 133.745 503.101 132.471C505.451 131.123 507.231 129.288 508.444 126.966C509.656 124.569 510.263 121.76 510.263 118.539V91.5735H532.883V149.325H510.263V133.37L512.422 136.853C510.073 141.048 506.511 144.456 501.737 147.078C497.039 149.625 491.242 150.898 484.346 150.898Z" fill="black"/>
<path d="M591.558 150.898C586.784 150.898 582.54 150.374 578.827 149.325C575.189 148.276 572.12 146.853 569.619 145.055C567.119 143.258 565.186 141.31 563.822 139.213L565.755 134.943V149.325H543.134V69.1021H565.755V105.843L563.822 101.686C565.186 99.5883 567.119 97.6407 569.619 95.843C572.12 94.0453 575.189 92.6221 578.827 91.5735C582.54 90.5248 586.784 90.0005 591.558 90.0005C597.09 90.0005 602.243 91.124 607.017 93.3712C611.791 95.5434 615.656 98.8767 618.611 103.371C621.567 107.79 623.044 113.446 623.044 120.337C623.044 124.457 622.476 128.164 621.339 131.46C620.202 134.681 618.649 137.528 616.679 139.999C614.708 142.396 612.397 144.419 609.745 146.067C607.093 147.715 604.213 148.913 601.106 149.662C597.999 150.486 594.816 150.898 591.558 150.898ZM582.805 135.393C585.003 135.393 587.011 135.131 588.83 134.606C590.724 134.082 592.353 133.37 593.717 132.471C595.081 131.498 596.218 130.412 597.128 129.213C598.113 127.94 598.833 126.554 599.287 125.056C599.742 123.558 599.969 122.022 599.969 120.449C599.969 117.753 599.287 115.281 597.923 113.034C596.635 110.787 594.703 108.989 592.126 107.641C589.625 106.217 586.518 105.506 582.805 105.506C580.532 105.506 578.448 105.768 576.553 106.292C574.735 106.817 573.105 107.566 571.666 108.539C570.301 109.438 569.165 110.524 568.255 111.798C567.346 112.996 566.664 114.344 566.209 115.843C565.755 117.266 565.527 118.801 565.527 120.449C565.527 123.071 566.171 125.543 567.46 127.865C568.748 130.112 570.68 131.947 573.257 133.37C575.833 134.719 579.016 135.393 582.805 135.393Z" fill="black"/>
<defs>
<filter id="filter0_f_217_808" x="285" y="0" width="428" height="220" filterUnits="userSpaceOnUse" color-interpolation-filters="sRGB">
<feFlood flood-opacity="0" result="BackgroundImageFix"/>
<feBlend mode="normal" in="SourceGraphic" in2="BackgroundImageFix" result="shape"/>
<feGaussianBlur stdDeviation="18.5" result="effect1_foregroundBlur_217_808"/>
</filter>
</defs>


  </g>
</svg>