<svg width="128" height="128" viewBox="0 0 128 128" fill="none" xmlns="http://www.w3.org/2000/svg">
<path d="M107.796 28.0664C114.423 28.0666 119.796 33.4391 119.796 40.0664V87.9346C119.796 94.5619 114.423 99.9344 107.796 99.9346H75.3281C68.7009 99.9344 63.3281 94.5619 63.3281 87.9346V83.5889H75.6289V69.9023C75.6289 68.3239 75.9177 66.9567 76.4951 65.8018C77.111 64.6469 77.9584 63.7615 79.0361 63.1455C80.1141 62.491 81.4047 62.1631 82.9062 62.1631C85.216 62.1632 86.852 62.8372 87.8145 64.1846C88.8154 65.532 89.3163 67.3993 89.3164 69.7861V83.5889H101.617V67.2451C101.617 64.2807 101.116 61.7586 100.115 59.6797C99.1143 57.5624 97.6322 55.9455 95.6689 54.8291C93.744 53.6741 91.3568 53.0967 88.5078 53.0967C86.1208 53.0967 84.0224 53.4045 82.2129 54.0205C80.4419 54.598 78.9209 55.4259 77.6504 56.5039C76.9183 57.1029 76.2459 57.7548 75.6289 58.4561V42.3545H63.3281V40.0664C63.3281 33.4391 68.7009 28.0666 75.3281 28.0664H107.796Z" fill="white"/>
<path d="M28.2506 83.5742L8.21094 42.3398H22.5332L38.2993 76.8173H34.7187L50.5426 42.3398H63.3633L43.3237 83.5742H28.2506Z" fill="white"/>
</svg>
